<?xml version="1.0" standalone="no"?><!DOCTYPE svg PUBLIC "-//W3C//DTD SVG 1.1//EN" "http://www.w3.org/Graphics/SVG/1.1/DTD/svg11.dtd"><svg t="1683723973120" class="icon" viewBox="0 0 1024 1024" version="1.1" xmlns="http://www.w3.org/2000/svg" p-id="2399" xmlns:xlink="http://www.w3.org/1999/xlink" width="380" height="380"><path d="M512 832c-176.448 0-320-143.552-320-320S335.552 192 512 192s320 143.552 320 320-143.552 320-320 320m0-704C300.256 128 128 300.256 128 512s172.256 384 384 384 384-172.256 384-384S723.744 128 512 128" fill="#3E3A39" p-id="2400"></path><path d="M649.824 361.376a31.968 31.968 0 0 0-45.248 0L505.6 460.352l-98.976-98.976a31.968 31.968 0 1 0-45.248 45.248l98.976 98.976-98.976 98.976a32 32 0 0 0 45.248 45.248l98.976-98.976 98.976 98.976a31.904 31.904 0 0 0 45.248 0 31.968 31.968 0 0 0 0-45.248L550.848 505.6l98.976-98.976a31.968 31.968 0 0 0 0-45.248" fill="#3E3A39" p-id="2401"></path></svg>